v -5 5 -5
vn -0.4082483053 0.8164966106 -0.4082483053
v 5 5 -5
vn 0.6666666865 0.3333333433 -0.6666666865
v -5 -5 -5
vn -0.6666666865 -0.3333333433 -0.6666666865
v 5 -5 -5
vn 0.4082483053 -0.8164966106 -0.4082483053
v 5 5 5
vn 0.4082483053 0.8164966106 0.4082483053
v 5 -5 5
vn 0.6666666865 -0.3333333433 0.6666666865
v -5 -5 5
vn -0.4082483053 -0.8164966106 0.4082483053
v -5 5 5
vn -0.6666666865 0.3333333433 0.6666666865
# mm_gid 0
g mmGroup0
f 1//1 2//2 3//3 
f 3//3 2//2 4//4 
f 5//5 6//6 2//2 
f 2//2 6//6 4//4 
f 6//6 7//7 4//4 
f 4//4 7//7 3//3 
f 7//7 8//8 3//3 
f 3//3 8//8 1//1 
f 8//8 5//5 1//1 
f 1//1 5//5 2//2 
f 5//5 8//8 6//6 
f 6//6 8//8 7//7 
